<svg xmlns="http://www.w3.org/2000/svg" xmlns:xlink="http://www.w3.org/1999/xlink" xml:space="preserve" version="1.1" style="shape-rendering:geometricPrecision;text-rendering:geometricPrecision;image-rendering:optimizeQuality;" viewBox="0 0 333.33 416.66249999999997" x="0px" y="0px" fill-rule="evenodd" clip-rule="evenodd"><defs><style type="text/css">
   
    .fil0 {fill:black}
   
  </style></defs><g><path class="fil0" d="M189.33 18.89l15.84 19.25 23.73 -7.63c8.65,-2.78 17.22,-1.66 24.86,3.25 7.64,4.91 12.22,12.24 13.28,21.26l2.92 24.76 24.09 6.41c8.78,2.33 15.38,7.91 19.15,16.17 3.77,8.26 3.66,16.91 -0.32,25.07l-10.93 22.41 16.8 18.42c6.12,6.71 8.66,14.98 7.37,23.96 -1.29,8.99 -6.06,16.2 -13.82,20.91l-21.31 12.94 4.17 24.58c1.52,8.95 -0.81,17.28 -6.76,24.14 -5.95,6.86 -13.85,10.35 -22.93,10.12l-24.92 -0.63 -9.78 22.93c-3.56,8.35 -10.02,14.1 -18.74,16.66 -8.72,2.56 -17.26,1.22 -24.77,-3.89l-20.62 -14 -20.62 14c-7.51,5.1 -16.05,6.44 -24.77,3.89 -8.71,-2.56 -15.17,-8.3 -18.74,-16.66l-9.78 -22.93 -24.92 0.63c-9.08,0.23 -16.98,-3.26 -22.93,-10.12 -5.95,-6.87 -8.28,-15.19 -6.76,-24.14l4.17 -24.58 -21.31 -12.94c-7.76,-4.71 -12.53,-11.93 -13.82,-20.91 -1.3,-8.99 1.25,-17.25 7.37,-23.96l16.8 -18.42 -10.93 -22.41c-3.98,-8.16 -4.09,-16.81 -0.32,-25.07 3.77,-8.26 10.38,-13.84 19.15,-16.17l24.09 -6.41 2.92 -24.76c1.06,-9.02 5.65,-16.35 13.29,-21.26 7.64,-4.91 16.21,-6.03 24.85,-3.25l23.73 7.63 15.84 -19.25c5.77,-7.01 13.59,-10.7 22.67,-10.7 9.08,0 16.9,3.69 22.67,10.7zm-107.29 132.65l56.09 81.52 113.15 -117.83 -14.97 -14.98 -97.57 76.77 -35.89 -39.29 -20.81 13.8z"/></g><text x="0" y="348.33" fill="#000000" font-size="5px" font-weight="bold" font-family="'Helvetica Neue', Helvetica, Arial-Unicode, Arial, Sans-serif">Created by YANDI RS</text><text x="0" y="353.33" fill="#000000" font-size="5px" font-weight="bold" font-family="'Helvetica Neue', Helvetica, Arial-Unicode, Arial, Sans-serif">from the Noun Project</text></svg>