<?xml version="1.0" encoding="UTF-8" standalone="no"?>
<svg
   width="66"
   height="82.5"
   enable-background="new 0 0 66 66"
   version="1.1"
   xml:space="preserve"
   id="svg1"
   sodipodi:docname="noun-global-positioning-system-1858328.svg"
   inkscape:version="1.3 (0e150ed, 2023-07-21)"
   xmlns:inkscape="http://www.inkscape.org/namespaces/inkscape"
   xmlns:sodipodi="http://sodipodi.sourceforge.net/DTD/sodipodi-0.dtd"
   xmlns="http://www.w3.org/2000/svg"
   xmlns:svg="http://www.w3.org/2000/svg"><defs
   id="defs1"><rect
     x="6.467161"
     y="67.992585"
     width="63.79767"
     height="86.170551"
     id="rect3" /></defs><sodipodi:namedview
   id="namedview1"
   pagecolor="#ffffff"
   bordercolor="#000000"
   borderopacity="0.25"
   inkscape:showpageshadow="2"
   inkscape:pageopacity="0.0"
   inkscape:pagecheckerboard="0"
   inkscape:deskcolor="#d1d1d1"
   inkscape:zoom="5.4354594"
   inkscape:cx="35.599567"
   inkscape:cy="38.635189"
   inkscape:window-width="1104"
   inkscape:window-height="731"
   inkscape:window-x="142"
   inkscape:window-y="171"
   inkscape:window-maximized="0"
   inkscape:current-layer="svg_1" />&#10; <g
   class="layer"
   id="g1"
   transform="translate(3.4957627,-11.186441)">&#10;  <title
   id="title1">Layer 1</title>&#10;  <g
   id="svg_1"
   transform="translate(-27.389842,3.7250184)">&#10;   &#10;   &#10;   &#10;   &#10;   &#10;   <g
   id="g3"
   transform="translate(-1.8704042,1.4327489)"><g
     id="svg_2"
     transform="translate(25.704406,6.2640991)">&#10;    <path
   d="m 21.8,63.1 c -3,-1.6 -2.6,-8.7 -2.6,-9.6 0.1,-1.3 -2.6,-2.5 -3.7,-2.9 -1.9,0 -4.7,-3.3 -5.8,-4.9 -1.1,-1 -1.5,-4.2 -1.7,-7.2 -0.8,2.6 -1.3,5.3 -1.3,8.1 0,10.5 6.2,19.6 15,23.8 0,-0.1 0,-0.2 0,-0.2 -1.2,-2.2 -0.4,-5.6 0.1,-7.1 z"
   id="svg_3" />&#10;   </g><g
     id="svg_4"
     transform="translate(25.704406,6.2640991)">&#10;    <path
   d="m 27.5,68.6 c 0.1,-0.1 -0.2,-0.6 0.3,-1 0.5,-0.4 1.8,-1.6 1.5,-2.7 -0.1,-0.3 0.1,-0.6 0.3,-0.8 0.8,-0.6 2.6,-2.4 2.3,-3.9 0,-0.2 0,-0.4 0.1,-0.5 0.2,-0.4 0.7,-1.5 0.4,-2.2 -0.1,-0.1 -0.2,-0.5 -1.1,-0.6 l -2.7,-0.6 c -1,-0.2 -0.4,-1.5 -0.4,-2.1 -0.5,-0.3 -1.3,-0.8 -2.3,-0.9 -0.1,0 -0.3,-0.1 -0.4,-0.2 -0.1,-0.1 -2,-1.6 -4.9,-0.8 0.2,0.4 0.3,0.8 0.2,1.3 -0.1,2.6 0.2,7.9 2.2,8.3 0.5,0.1 0.7,0.6 0.6,1 -0.5,1.3 -1.4,4.9 -0.3,6.7 0.1,0.2 0.1,0.3 0.1,0.5 0,0.2 -0.1,0.6 -0.1,0.9 0.4,0.1 0.7,0.3 1.1,0.4 0.1,-2.9 2.4,-1.7 3.1,-2.8 z"
   id="svg_5" />&#10;   </g><g
     id="svg_6"
     transform="translate(25.704406,6.2640991)">&#10;    <path
   d="m 17.9,49.9 c 0,0.1 0,0.1 0,0.2 -0.4,-0.2 -2.1,-1.1 -2.5,-1 -1.1,0.2 -4.6,-4.4 -4.7,-4.5 C 9.9,44 9.4,40 9.3,35 c 0.1,-0.1 0.1,-0.3 0.2,-0.5 0,0 0,0 0,-0.1 4.2,-8.1 12.3,-13.4 21.3,-14.1 -0.1,0.6 -0.1,1.3 -0.1,1.9 0,2.2 1,4.9 2.4,7.6 -0.4,0.5 -0.8,0.9 -1.1,1.2 -1.2,-0.9 -1.4,-4.5 -1.3,-6.3 0,-0.2 -0.1,-0.4 -0.2,-0.6 C 30.4,24 30.2,23.9 30,23.9 27.6,24 27.9,22 27.8,21.8 c 0,-0.6 -0.6,-1 -1.2,-0.7 L 23.5,23 c -0.8,0.4 -1,1 -1,1.3 0,1.4 2.4,3 4.4,4.1 -0.3,0.4 -0.6,0.5 -0.6,0.7 l -0.3,1 -2.3,-0.8 c -0.1,0 -0.1,0 -0.2,0 -2.9,-0.3 -2.9,-0.4 -3.3,-0.2 -1.6,0.9 -2.3,1.9 -2.3,3 0,2.5 5.8,6.6 5.5,-0.6 0.8,0.1 1.5,1.3 2.2,1.2 0.9,-0.2 1,0 1.1,0 0.2,0.4 -0.9,1.5 0.2,1.9 1.2,0.4 2.2,1.1 2,2.4 -0.8,-0.1 -1.7,0.3 -2.3,0.7 -1.4,-0.1 -2.9,1 -3.4,1.5 -1.6,0.3 -2.1,2.3 -2.3,3.3 -0.7,0.4 -1.2,1.2 -1.6,2 -1.2,-0.9 -3.8,-0.6 -4.2,-0.4 -3.2,1.8 0,5.8 1.1,4.9 l 0.5,-0.4 V 49 c 0.1,0.4 0.7,0.6 1.2,0.9 z"
   id="svg_7" />&#10;   </g><g
     id="svg_8"
     transform="translate(25.704406,6.2640991)">&#10;    <path
   d="m 25.7,72 c 0,-0.5 0.1,-1.1 0.3,-1.2 0.3,0 2.1,-0.4 2.7,-1.4 0.2,-0.3 0.3,-0.6 0.3,-0.9 0.6,-0.6 1.9,-1.9 1.8,-3.4 0.8,-0.7 2.8,-2.7 2.6,-4.9 0.3,-0.6 0.9,-2.1 0.3,-3.3 -0.3,-0.5 -0.8,-1.2 -2.2,-1.5 l -2,-0.4 0.1,-1 c 0.1,-1 -2.5,-1.9 -3.4,-2.1 -0.6,-0.4 -2.8,-1.8 -5.9,-1 -1.5,-0.9 -0.4,-1.5 -1.2,-2 l -0.8,-0.5 c -0.1,-1.2 0.3,-2 -0.4,-2.3 -0.7,-0.3 -1.1,0.5 -2,1.1 -0.9,-1 -0.7,-1.5 0,-1.9 0.9,-0.1 2.8,-0.2 2.9,0.7 0.1,0.8 1.2,0.9 1.5,0.2 0.4,-1.1 1.3,-2.5 1.7,-2.6 0.3,-0.1 0.5,-0.3 0.6,-0.7 0,-0.6 0.4,-2.4 1.1,-2.4 0.2,0 0.3,-0.1 0.5,-0.2 0.5,-0.5 1.9,-1.4 2.7,-1.2 0.2,0 0.5,0 0.6,-0.2 0,0 1,-0.9 1.6,-0.4 1.4,1.1 2.9,-3.5 -0.9,-5.2 0.3,-1.1 -0.2,-1.8 -0.9,-2.1 l 0.4,-1.1 c 0.8,-0.9 1.4,-1.1 1.3,-1.7 0,-0.2 -0.2,-0.4 -0.4,-0.6 -2.2,-1.1 -4.2,-2.5 -4.5,-3.1 0,0 0.1,0 0.1,-0.1 0,0 0.1,0 0.1,0 l 2.2,-1.4 c 0.4,1.3 1.4,2.1 2.8,2.3 0,1.9 0.3,6.6 2.9,7.2 0.3,0.1 0.6,0 0.8,-0.3 0,0 0.4,-0.5 1,-1.1 3.4,6.1 8.5,12.3 10,14 0.9,1 2.5,1.1 3.4,0 1.2,-1.5 5.3,-6.4 8.6,-11.7 0.8,1.4 1.4,2.8 1.4,2.9 0,0 0,0.1 0,0.1 8.2,19.3 -9.8,41.5 -31.7,35.4 z"
   id="svg_9" />&#10;   </g><g
     id="svg_10"
     transform="translate(25.704406,6.2640991)">&#10;    <path
   d="m 20.5,33.4 c 0.1,0.1 0.8,0.7 1,0.5 0.5,-0.3 0.5,-2.6 0.5,-2.8 0.1,-0.3 0.1,-0.5 0.3,-0.6 l -1.4,-0.2 c -1.8,1.1 -2,2.2 -0.4,3.1 z"
   id="svg_11" />&#10;   </g><g
     id="svg_12"
     transform="translate(25.704406,6.2640991)">&#10;    <g
   id="svg_13">&#10;     <path
   d="m 45.5,9 c -7.3,0 -13.3,6 -13.3,13.3 0,7.1 12.2,21.4 12.8,22 0.3,0.3 0.8,0.3 1.1,0 0.5,-0.6 12.8,-14.9 12.8,-22 C 58.9,15 52.9,9 45.5,9 Z m 0,7 c 3.5,0 6.3,2.8 6.3,6.3 0,3.5 -2.8,6.3 -6.3,6.3 -3.5,0 -6.3,-2.8 -6.3,-6.3 0,-3.5 2.9,-6.3 6.3,-6.3 z"
   id="svg_14" />&#10;    </g>&#10;   </g></g>&#10;  </g>&#10;  &#10;  <text
   fill="#000000"
   font-family="'Helvetica Neue', Helvetica, Arial-Unicode, Arial, Sans-serif"
   font-size="5px"
   font-weight="bold"
   id="svg_16"
   opacity="0.1"
   x="0"
   y="86"
   style="white-space:pre;inline-size:23.4828"
   xml:space="preserve" />&#10; <text
   xml:space="preserve"
   style="fill:#000000"
   x="34.957626"
   y="47.367584"
   id="text2"><tspan
     sodipodi:role="line"
     id="tspan2"
     x="34.957626"
     y="47.367584" /></text><text
   xml:space="preserve"
   transform="translate(-3.4957627,11.186441)"
   id="text3"
   style="fill:#000000;white-space:pre;shape-inside:url(#rect3)" /></g>&#10;</svg>
