<?xml version="1.0" encoding="UTF-8" standalone="no"?>
<svg
   version="1.1"
   x="0px"
   y="0px"
   viewBox="0 0 128 160"
   style="enable-background:new 0 0 128 128;"
   xml:space="preserve"
   id="svg4"
   sodipodi:docname="noun-page-linking-1405072.svg"
   inkscape:version="1.3 (0e150ed, 2023-07-21)"
   xmlns:inkscape="http://www.inkscape.org/namespaces/inkscape"
   xmlns:sodipodi="http://sodipodi.sourceforge.net/DTD/sodipodi-0.dtd"
   xmlns="http://www.w3.org/2000/svg"
   xmlns:svg="http://www.w3.org/2000/svg"><defs
     id="defs4" /><sodipodi:namedview
     id="namedview4"
     pagecolor="#ffffff"
     bordercolor="#000000"
     borderopacity="0.25"
     inkscape:showpageshadow="2"
     inkscape:pageopacity="0.0"
     inkscape:pagecheckerboard="0"
     inkscape:deskcolor="#d1d1d1"
     inkscape:zoom="1.475"
     inkscape:cx="64.067797"
     inkscape:cy="80"
     inkscape:window-width="1312"
     inkscape:window-height="449"
     inkscape:window-x="0"
     inkscape:window-y="43"
     inkscape:window-maximized="0"
     inkscape:current-layer="svg4" /><g
     id="g4"
     transform="translate(0,15.9995)"><path
       d="M 46.541,80 H 8.18 C 5.875,80 4,78.237 4,76.071 V 7.929 C 4,5.763 5.875,4 8.18,4 H 67.82 C 70.125,4 72,5.763 72,7.929 v 28.828 c 1.207,0.043 2.423,0.3 3.592,0.813 0.141,0.062 0.272,0.137 0.408,0.205 V 7.929 C 76,3.55 72.338,0 67.82,0 H 8.18 C 3.662,0 0,3.55 0,7.929 V 76.072 C 0,80.45 3.662,84 8.18,84 h 38.673 c -0.37,-1.309 -0.476,-2.664 -0.312,-4 z"
       id="path1" /><path
       d="M 119.82,44 H 81.144 c 0.361,1.281 0.475,2.64 0.311,4 h 38.365 c 2.305,0 4.18,1.763 4.18,3.929 v 68.143 c 0,2.166 -1.875,3.929 -4.18,3.929 H 60.18 c -2.305,0 -4.18,-1.763 -4.18,-3.929 V 91.246 C 54.776,91.2 53.561,90.936 52.407,90.43 52.267,90.369 52.136,90.294 52,90.227 v 29.845 c 0,4.379 3.662,7.929 8.18,7.929 h 59.641 c 4.518,0 8.18,-3.55 8.18,-7.929 V 51.929 C 128,47.55 124.338,44 119.82,44 Z"
       id="path2" /><path
       d="m 65.091,44.084 -3.869,8.821 c -1.307,2.98 -0.478,6.341 1.815,8.312 l -1.737,3.96 c -3.002,-0.352 -6.037,1.315 -7.343,4.295 l -3.869,8.821 c -1.593,3.633 -0.016,7.838 3.525,9.39 3.541,1.553 7.703,-0.134 9.297,-3.767 l 3.869,-8.821 c 1.307,-2.98 0.478,-6.341 -1.815,-8.311 l 1.737,-3.96 c 3.002,0.352 6.037,-1.315 7.343,-4.295 l 3.869,-8.821 c 1.593,-3.633 0.015,-7.838 -3.526,-9.391 -3.541,-1.553 -7.703,0.134 -9.296,3.767 z m -1.892,29.441 -3.869,8.821 c -0.703,1.603 -2.546,2.349 -4.107,1.664 -1.562,-0.685 -2.26,-2.546 -1.557,-4.148 l 3.869,-8.821 c 0.387,-0.883 1.124,-1.493 1.965,-1.76 l -1.285,2.93 c -0.479,1.091 -0.046,2.335 0.965,2.779 1.012,0.444 2.22,-0.081 2.698,-1.172 l 1.285,-2.929 c 0.373,0.799 0.424,1.754 0.036,2.636 z m 9.577,-29.536 c 1.562,0.685 2.261,2.546 1.558,4.149 l -3.869,8.821 c -0.387,0.883 -1.124,1.492 -1.965,1.759 l 1.285,-2.929 c 0.479,-1.091 0.046,-2.335 -0.965,-2.779 -1.011,-0.444 -2.219,0.081 -2.698,1.172 l -1.285,2.93 c -0.373,-0.8 -0.424,-1.755 -0.036,-2.638 l 3.869,-8.821 c 0.702,-1.602 2.543,-2.349 4.106,-1.664 z"
       id="path3" /></g></svg>
