<?xml version="1.0" encoding="UTF-8" standalone="no"?>
<svg
   version="1.1"
   x="0px"
   y="0px"
   viewBox="0 0 66 82.5"
   enable-background="new 0 0 66 66"
   xml:space="preserve"
   id="svg10"
   sodipodi:docname="noun-mapping-1858401.svg"
   inkscape:version="1.3 (0e150ed, 2023-07-21)"
   xmlns:inkscape="http://www.inkscape.org/namespaces/inkscape"
   xmlns:sodipodi="http://sodipodi.sourceforge.net/DTD/sodipodi-0.dtd"
   xmlns="http://www.w3.org/2000/svg"
   xmlns:svg="http://www.w3.org/2000/svg"><defs
     id="defs10" /><sodipodi:namedview
     id="namedview10"
     pagecolor="#ffffff"
     bordercolor="#000000"
     borderopacity="0.25"
     inkscape:showpageshadow="2"
     inkscape:pageopacity="0.0"
     inkscape:pagecheckerboard="0"
     inkscape:deskcolor="#d1d1d1"
     inkscape:zoom="2.8606061"
     inkscape:cx="32.860169"
     inkscape:cy="41.25"
     inkscape:window-width="1312"
     inkscape:window-height="449"
     inkscape:window-x="0"
     inkscape:window-y="43"
     inkscape:window-maximized="0"
     inkscape:current-layer="svg10" /><g
     id="g9"
     transform="translate(0,8.1707107)"><g
       id="g1"><path
         d="m 33,39.9 v 6.2 c 0,4.2 -3.4,7.7 -7.7,7.7 h -2 V 59 l 19.5,5.5 V 33.8 h -3.6 c -3.4,0 -6.2,2.7 -6.2,6.1 z"
         id="path1" /></g><g
       id="g2"><path
         d="m 31.5,46.1 v -6.2 c 0,-4.2 3.4,-7.7 7.7,-7.7 h 3.6 V 7 L 23.3,1.6 v 50.7 h 2 c 3.5,0 6.2,-2.7 6.2,-6.2 z"
         id="path2" /></g><g
       id="g3"><path
         d="M 64.7,1.6 C 64.5,1.5 64.3,1.4 64,1.5 L 44.3,7 v 25.3 h 0.5 c 0.3,-1.8 2,-3.2 4.2,-3.5 V 9.4 c 0,-0.4 0.3,-0.8 0.8,-0.8 0,0 0,0 0,0 h 12.3 c 0.3,0 0.5,0.2 0.7,0.4 0.1,0.3 0.1,0.6 -0.1,0.8 l -3.5,4.6 3.4,4.7 c 0.2,0.1 0.2,0.3 0.2,0.6 0,0.4 -0.3,0.8 -0.8,0.8 0,0 0,0 0,0 H 50.6 v 8.4 c 2.4,0.3 4.3,2 4.3,4 0,2.2 -2.3,4 -5,4 -2.3,0 -4.3,-1.3 -4.9,-3.1 h -0.6 v 30.6 l 20.1,-5.6 c 0.3,-0.1 0.6,-0.4 0.6,-0.7 V 2.2 C 65,1.9 64.9,1.7 64.7,1.6 Z"
         id="path3" /></g><g
       id="g4"><path
         d="m 57.7,14.8 c -0.2,-0.3 -0.2,-0.6 0,-0.9 l 2.9,-3.8 h -10 v 8.8 h 10.1 z"
         id="path4" /></g><g
       id="g5"><path
         d="m 49.8,35.3 c 1.9,0 3.5,-1.1 3.5,-2.5 0,-1.4 -1.6,-2.5 -3.5,-2.5 -1.9,0 -3.5,1.1 -3.5,2.5 0,1.4 1.6,2.5 3.5,2.5 z"
         id="path5" /></g><g
       id="g6"><path
         d="m 11.9,53.7 c -0.1,0 -0.1,0 0,0 -0.1,-0.1 -0.2,-0.1 -0.2,-0.2 0,0 0,0 0,0 C 11,52.6 4.9,44.9 4.9,41.1 c 0,-4.1 3.3,-7.4 7.4,-7.4 4.1,0 7.4,3.3 7.4,7.4 0,3.1 -4,8.7 -5.9,11.2 h 8.1 V 1.6 L 1.5,7.3 C 1.2,7.4 1,7.6 1,8 v 55.9 c 0,0.2 0.1,0.5 0.3,0.6 0.1,0.1 0.3,0.2 0.5,0.2 0.1,0 0.1,0 0.2,0 L 21.8,59 v -5.2 h -9.7 c 0,0 -0.1,0 -0.2,-0.1 z"
         id="path6" /></g><g
       id="g7"><circle
         cx="12.2"
         cy="41.099998"
         r="2.8"
         id="circle6" /></g><g
       id="g8"><path
         d="m 12.2,35.2 c -3.3,0 -5.9,2.7 -5.9,5.9 0,2.5 3.8,8 5.9,10.7 2.1,-2.7 5.9,-8.2 5.9,-10.7 0,-3.2 -2.7,-5.9 -5.9,-5.9 z m 0,10.3 c -2.4,0 -4.3,-1.9 -4.3,-4.3 0,-2.4 1.9,-4.3 4.3,-4.3 2.4,0 4.3,1.9 4.3,4.3 0,2.3 -1.9,4.3 -4.3,4.3 z"
         id="path7" /></g></g></svg>
