<?xml version="1.0" encoding="UTF-8" standalone="no"?>
<svg
   data-name="Layer 1"
   viewBox="0 0 92 99.48750000000001"
   x="0px"
   y="0px"
   version="1.1"
   id="svg14"
   sodipodi:docname="noun-map-3793763.svg"
   inkscape:version="1.3 (0e150ed, 2023-07-21)"
   xmlns:inkscape="http://www.inkscape.org/namespaces/inkscape"
   xmlns:sodipodi="http://sodipodi.sourceforge.net/DTD/sodipodi-0.dtd"
   xmlns="http://www.w3.org/2000/svg"
   xmlns:svg="http://www.w3.org/2000/svg">
  <defs
     id="defs14" />
  <sodipodi:namedview
     id="namedview14"
     pagecolor="#ffffff"
     bordercolor="#000000"
     borderopacity="0.25"
     inkscape:showpageshadow="2"
     inkscape:pageopacity="0.0"
     inkscape:pagecheckerboard="0"
     inkscape:deskcolor="#d1d1d1"
     inkscape:zoom="2.3721572"
     inkscape:cx="45.949737"
     inkscape:cy="49.743752"
     inkscape:window-width="1312"
     inkscape:window-height="449"
     inkscape:window-x="91"
     inkscape:window-y="126"
     inkscape:window-maximized="0"
     inkscape:current-layer="svg14" />
  <g
     id="g14"
     transform="translate(3.6990441e-4,10.034963)">
    <path
       d="M 95.52,42 68.89,25.83 a 1.86,1.86 0 0 0 0.1,-0.58 v -7.46 a 1.88,1.88 0 0 0 -1.08,-1.71 4.23,4.23 0 0 0 0.39,-1.76 4.1,4.1 0 1 0 -8.19,0 4.05,4.05 0 0 0 0.4,1.76 1.87,1.87 0 0 0 -1.09,1.71 V 25 L 47.17,28.77 18.33,30 a 1,1 0 0 0 -0.56,0.2 L 4.4,40.22 A 1,1 0 0 0 4.18,41.59 L 37,89.36 a 1,1 0 0 0 0.81,0.44 v 0 a 1,1 0 0 0 0.8,-0.4 L 52.09,71.58 79.67,59.48 a 1.21,1.21 0 0 0 0.3,-0.2 L 95.71,43.58 A 1,1 0 0 0 95.99,42.75 1,1 0 0 0 95.52,42 Z M 61.42,17.9 h 1.06 a 1,1 0 0 0 0.52,-1.83 2.1,2.1 0 1 1 2.33,0 1,1 0 0 0 0.56,1.83 H 67 v 7.25 c -1.69,0.18 -1.77,4.4 -1.77,4.45 v 3.61 h -2 V 29.6 c 0,-0.05 -0.08,-4.27 -1.77,-4.45 z m 16,40.37 L 51.74,69.55 44.5,60.84 V 55.51 A 2.25,2.25 0 0 0 42.82,53.34 5.3044557,5.3044557 0 0 0 33.73,47.87 L 20.43,31.87 47,30.78 Z M 34.18,66.14 A 0.23,0.23 0 0 1 34,65.9 V 55.51 a 0.23,0.23 0 0 1 0.23,-0.24 h 1.64 a 1,1 0 0 0 1,-0.7 1,1 0 0 0 -0.39,-1.13 3.31,3.31 0 1 1 3.69,0 1,1 0 0 0 0.56,1.83 h 1.63 a 0.24,0.24 0 0 1 0.24,0.24 V 65.9 a 0.27,0.27 0 0 1 -0.08,0.18 0.22,0.22 0 0 1 -0.16,0.06 C 40.2,66.14 40,71.89 40,72 v 5.18 a 0.23,0.23 0 0 1 -0.23,0.24 H 36.65 A 0.24,0.24 0 0 1 36.41,77.18 V 72 c 0,-0.11 -0.16,-5.86 -2.23,-5.86 z m 3.71,21 -31.52,-45.89 11.84,-8.93 6.92,8.33 -0.1,0.08 a 14.11,14.11 0 0 0 -2.3,3.91 12,12 0 0 0 -0.56,1.83 1,1 0 0 0 0.76,1.19 0.83,0.83 0 0 0 0.22,0 1,1 0 0 0 1,-0.78 11.38,11.38 0 0 1 2.3,-4.7 L 33,50.1 a 5.48,5.48 0 0 0 0,0.57 5.33,5.33 0 0 0 0.71,2.67 A 2.24,2.24 0 0 0 32,55.51 V 65.9 a 2.25,2.25 0 0 0 1.76,2.19 17.38,17.38 0 0 1 0.7,3.86 v 5.18 a 2.24,2.24 0 0 0 2.24,2.24 h 3.1 A 2.23,2.23 0 0 0 42,77.13 V 72 a 18,18 0 0 1 0.7,-3.86 2.21,2.21 0 0 0 1.12,-0.61 2.26,2.26 0 0 0 0.65,-1.58 V 64 l 5.68,6.84 z m 41.34,-29.9 -3.42,-3.08 a 18.68,18.68 0 0 0 4.85,-3 1.0019606,1.0019606 0 1 0 -1.34,-1.49 17.27,17.27 0 0 1 -4.85,2.88 1.25,1.25 0 0 0 -0.24,0.16 L 49.31,30.2 60.22,26.8 a 2,2 0 0 0 0.53,0.26 13.7,13.7 0 0 1 0.44,2.54 v 3.72 a 1.89,1.89 0 0 0 1.89,1.89 h 2.26 a 1.89,1.89 0 0 0 1.88,-1.89 V 29.6 a 14.65,14.65 0 0 1 0.36,-2.23 l 25.81,15.69 z"
       transform="translate(-4,-10.2)"
       id="path1" />
    <path
       d="m 71.32,55.68 a 1,1 0 1 0 -0.51,-1.93 28.34,28.34 0 0 1 -5.66,0.91 v 1 l 0.13,1 a 29.7,29.7 0 0 0 6.04,-0.98 z"
       transform="translate(-4,-10.2)"
       id="path2" />
    <path
       d="m 81.43,45.8 a 3.48,3.48 0 0 1 -0.16,1.05 1,1 0 0 0 0.73,1.25 1.35,1.35 0 0 0 0.28,0 1,1 0 0 0 1,-0.72 5.63,5.63 0 0 0 0.24,-1.62 7.48,7.48 0 0 0 -2,-4.82 1.0006248,1.0006248 0 0 0 -1.53,1.29 5.65,5.65 0 0 1 1.44,3.57 z"
       transform="translate(-4,-10.2)"
       id="path3" />
    <path
       d="m 46.55,45.89 c 0.4,-1 2.11,-1.64 3.62,-2.25 l 0.81,-0.33 a 1,1 0 1 0 -0.77,-1.84 l -0.79,0.32 c -1.87,0.75 -4,1.61 -4.71,3.34 a 1,1 0 0 0 0.54,1.31 1,1 0 0 0 1.3,-0.55 z"
       transform="translate(-4,-10.2)"
       id="path4" />
    <path
       d="M 45,35.8 A 1,1 0 0 0 44.18,34.65 25.72,25.72 0 0 0 38,34.37 a 1,1 0 0 0 -0.91,1.08 1,1 0 0 0 1.08,0.91 23.62,23.62 0 0 1 5.73,0.26 H 44 a 1,1 0 0 0 1,-0.82 z"
       transform="translate(-4,-10.2)"
       id="path5" />
    <path
       d="m 33.84,35.1 a 18.13,18.13 0 0 0 -4.06,1.71 19,19 0 0 0 -1.63,1 1,1 0 0 0 -0.23,1.39 1,1 0 0 0 0.81,0.42 1,1 0 0 0 0.58,-0.18 c 0.64,-0.46 1.18,-0.77 1.47,-0.94 A 16.15,16.15 0 0 1 34.39,37 1.0034192,1.0034192 0 0 0 33.84,35.07 Z"
       transform="translate(-4,-10.2)"
       id="path6" />
    <path
       d="m 52.08,51.74 a 16,16 0 0 1 -4.53,-3.29 1.0023597,1.0023597 0 1 0 -1.5,1.33 17.81,17.81 0 0 0 5.12,3.74 1.07,1.07 0 0 0 0.46,0.11 1,1 0 0 0 0.45,-1.89 z"
       transform="translate(-4,-10.2)"
       id="path7" />
    <path
       d="m 55,55.13 a 29.22,29.22 0 0 0 6,1.37 h 0.11 a 1,1 0 0 0 1,-0.89 1,1 0 0 0 -0.87,-1.1 27.36,27.36 0 0 1 -5.64,-1.28 1,1 0 0 0 -1.27,0.62 1,1 0 0 0 0.67,1.28 z"
       transform="translate(-4,-10.2)"
       id="path8" />
    <path
       d="m 24.87,56.32 c -0.24,-1 -0.45,-1.91 -0.62,-2.84 a 23,23 0 0 1 -0.37,-2.88 1.0021103,1.0021103 0 0 0 -2,0.13 26.66,26.66 0 0 0 0.4,3.1 c 0.18,1 0.4,2 0.65,3 a 1,1 0 0 0 1,0.75 1.07,1.07 0 0 0 0.25,0 1,1 0 0 0 0.69,-1.26 z"
       transform="translate(-4,-10.2)"
       id="path9" />
    <path
       d="m 30.23,68.9 a 1,1 0 1 0 -1.72,1 c 1,1.71 2.13,3.42 3.34,5.09 a 1,1 0 0 0 0.81,0.42 1.09,1.09 0 0 0 0.59,-0.19 1,1 0 0 0 0.22,-1.4 C 32.3,72.22 31.21,70.56 30.23,68.9 Z"
       transform="translate(-4,-10.2)"
       id="path10" />
    <path
       d="m 28.35,65.45 a 52.05,52.05 0 0 1 -2.35,-5.4 1,1 0 0 0 -1.27,-0.6 1,1 0 0 0 -0.61,1.28 51,51 0 0 0 2.42,5.61 1,1 0 0 0 0.89,0.56 1,1 0 0 0 0.45,-0.11 1,1 0 0 0 0.47,-1.34 z"
       transform="translate(-4,-10.2)"
       id="path11" />
    <path
       d="m 47,36.28 a 1,1 0 0 0 0.62,1.27 c 2.56,0.88 4.06,2 4.42,2.66 a 1,1 0 0 0 0.89,0.54 1,1 0 0 0 0.45,-0.11 1,1 0 0 0 0.43,-1.35 c -0.68,-1.33 -2.7,-2.66 -5.54,-3.63 A 1,1 0 0 0 47,36.28 Z"
       transform="translate(-4,-10.2)"
       id="path12" />
    <path
       d="m 71.94,37.25 a 24.43,24.43 0 0 1 5.14,2.58 1,1 0 0 0 0.56,0.17 1,1 0 0 0 0.83,-0.44 1,1 0 0 0 -0.27,-1.38 25.81,25.81 0 0 0 -5.56,-2.8 1,1 0 1 0 -0.7,1.87 z"
       transform="translate(-4,-10.2)"
       id="path13" />
  </g>
</svg>
